<svg data-v-423bf9ae="" xmlns="http://www.w3.org/2000/svg" viewBox="0 0 648 90" class="iconLeft"><!----><!----><!----><g data-v-423bf9ae="" id="4f319f7b-389f-4651-8c69-57d95b494b4f" fill="white" transform="matrix(5.940593835033989,0,0,5.940593835033989,108.76748832198979,-27.89108671939637)"><path d="M3.32 11.67L3.49 11.67L7.63 7.26L9.11 7.26L9.11 7.47L4.90 11.39Q4.83 11.44 4.83 11.53L4.83 11.53Q4.83 11.66 4.87 11.66L4.87 11.66L9.75 16.11L9.75 16.33L7.83 17.16Q5.45 14.45 3.46 12.55L3.46 12.55L3.32 12.55Q3.32 15.09 3.47 16.67L3.47 16.67L1.65 17.26L1.51 17.12Q1.58 15.14 1.58 12.36L1.58 12.36Q1.58 8.91 1.55 8.50L1.55 8.50Q1.54 8.34 1.44 8.22Q1.34 8.11 1.16 8.03Q0.97 7.96 0.80 7.91Q0.63 7.87 0.38 7.81L0.38 7.81Q0.27 7.79 0.21 7.78L0.21 7.78L0.21 7.42L0.27 7.27L3.43 7.27L3.53 7.38Q3.32 9.61 3.32 11.67L3.32 11.67ZM15.13 10.57L15.13 10.57L16.58 10.09L16.74 10.23Q16.67 11.81 16.67 14.05L16.67 14.05Q16.67 14.10 16.66 14.31Q16.65 14.53 16.65 14.69Q16.65 14.85 16.67 15.08Q16.69 15.31 16.75 15.46Q16.81 15.61 16.94 15.72Q17.06 15.83 17.25 15.83L17.25 15.83Q17.53 15.83 18.20 15.44L18.20 15.44L18.34 15.44L18.45 15.72Q18.12 16.05 17.93 16.22Q17.75 16.39 17.42 16.67Q17.09 16.94 16.81 17.07Q16.52 17.20 16.27 17.20L16.27 17.20Q15.41 17.20 15.26 16.24L15.26 16.24L15.12 16.15Q15.03 16.21 14.70 16.38Q14.38 16.54 14.23 16.62Q14.08 16.70 13.79 16.83Q13.51 16.97 13.32 17.03Q13.13 17.09 12.90 17.14Q12.67 17.20 12.49 17.20L12.49 17.20Q11.62 17.20 11.13 16.74L11.13 16.74Q11.05 16.67 10.99 16.59Q10.93 16.52 10.89 16.41Q10.85 16.30 10.82 16.21Q10.79 16.12 10.77 15.96Q10.75 15.80 10.74 15.70Q10.73 15.59 10.73 15.38Q10.73 15.16 10.73 15.04Q10.73 14.92 10.73 14.65Q10.73 14.38 10.73 14.23L10.73 14.23Q10.73 14.07 10.73 13.76Q10.74 13.46 10.74 13.32L10.74 13.32Q10.74 13.20 10.74 12.97Q10.75 12.74 10.75 12.62Q10.75 12.50 10.74 12.30Q10.74 12.11 10.73 12.00Q10.71 11.89 10.69 11.74Q10.66 11.59 10.62 11.52Q10.58 11.44 10.52 11.36Q10.47 11.28 10.38 11.25Q10.29 11.21 10.19 11.21L10.19 11.21Q9.94 11.21 9.34 11.59L9.34 11.59L9.14 11.24Q9.49 10.98 9.67 10.86Q9.84 10.73 10.17 10.53Q10.50 10.33 10.78 10.24Q11.05 10.14 11.30 10.14L11.30 10.14Q11.62 10.14 11.84 10.25Q12.06 10.36 12.17 10.55Q12.28 10.75 12.32 10.97Q12.36 11.19 12.36 11.48L12.36 11.48Q12.36 11.73 12.31 12.60Q12.26 13.46 12.26 13.92Q12.26 14.39 12.29 14.71Q12.32 15.03 12.40 15.32Q12.48 15.62 12.63 15.79Q12.78 15.96 13.02 16.06Q13.26 16.17 13.61 16.17L13.61 16.17Q14.05 16.17 14.41 16.00Q14.77 15.83 15.20 15.50L15.20 15.50Q15.22 14.95 15.22 13.79L15.22 13.79Q15.22 12.11 15.13 10.57ZM20.69 11.73L20.69 11.73Q20.69 16.08 20.77 16.73L20.77 16.73L19.35 17.20L19.12 17.09Q19.22 14.84 19.22 13.03L19.22 13.03Q19.22 11.98 19.13 11.66L19.13 11.66Q19.00 11.22 18.67 11.22L18.67 11.22Q18.27 11.22 17.66 11.64L17.66 11.64L17.40 11.31Q17.80 10.99 18.10 10.78Q18.40 10.58 18.84 10.39Q19.27 10.20 19.63 10.20L19.63 10.20Q20.10 10.20 20.35 10.45Q20.60 10.69 20.63 11.09L20.63 11.09L20.77 11.14Q22.37 10.16 23.47 10.16L23.47 10.16Q23.99 10.16 24.39 10.42Q24.79 10.68 24.93 11.17L24.93 11.17L25.14 11.24Q25.20 11.20 25.49 11.03Q25.79 10.86 25.88 10.80Q25.98 10.75 26.24 10.62Q26.49 10.48 26.63 10.43Q26.78 10.38 27.00 10.30Q27.21 10.23 27.41 10.20Q27.60 10.17 27.79 10.17L27.79 10.17Q28.39 10.17 28.72 10.39Q29.05 10.60 29.21 11.15Q29.37 11.69 29.37 12.68L29.37 12.68Q29.37 12.98 29.34 13.81Q29.31 14.64 29.31 14.94L29.31 14.94Q29.31 15.82 29.89 15.82L29.89 15.82Q30.36 15.82 30.81 15.50L30.81 15.50L30.95 15.50L31.10 15.79Q30.82 16.06 30.71 16.17Q30.60 16.27 30.30 16.52Q30.00 16.76 29.81 16.87Q29.62 16.98 29.35 17.08Q29.07 17.19 28.83 17.19L28.83 17.19Q28.62 17.19 28.45 17.12Q28.28 17.05 28.12 16.87Q27.97 16.70 27.88 16.35Q27.79 16.00 27.79 15.50L27.79 15.50Q27.79 15.14 27.83 14.31Q27.86 13.48 27.86 13.13L27.86 13.13Q27.86 13.09 27.86 13.02L27.86 13.02Q27.86 12.78 27.86 12.65Q27.86 12.52 27.84 12.28Q27.82 12.04 27.78 11.90Q27.75 11.76 27.67 11.58Q27.60 11.40 27.49 11.30Q27.38 11.20 27.22 11.13Q27.06 11.05 26.84 11.05L26.84 11.05Q26.56 11.05 26.19 11.21Q25.82 11.36 25.57 11.52Q25.32 11.67 24.96 11.92L24.96 11.92Q24.96 15.61 25.04 16.73L25.04 16.73L23.65 17.21L23.43 17.10Q23.49 15.54 23.49 13.04L23.49 13.04Q23.49 12.16 23.41 11.82L23.41 11.82Q23.21 11.03 22.52 11.03L22.52 11.03Q21.79 11.03 20.69 11.73ZM33.39 7.22L33.61 7.39L33.51 11.24L33.66 11.28Q34.98 10.19 36.26 10.19L36.26 10.19Q36.74 10.19 37.12 10.35Q37.50 10.52 37.75 10.79Q38.00 11.07 38.17 11.43Q38.34 11.80 38.41 12.17Q38.48 12.55 38.48 12.95L38.48 12.95Q38.48 13.86 38.14 14.69Q37.81 15.51 37.13 16.08L37.13 16.08Q35.70 17.29 34.15 17.29L34.15 17.29Q33.71 17.29 33.34 17.17Q32.96 17.04 32.65 16.77Q32.33 16.50 32.16 16.00Q31.98 15.51 31.98 14.83L31.98 14.83L31.98 9.99Q31.98 9.71 31.96 9.28Q31.95 8.85 31.95 8.66L31.95 8.66Q31.95 8.37 31.64 8.23Q31.32 8.10 30.64 8.05L30.64 8.05L30.64 7.74L30.76 7.62L33.39 7.22ZM33.51 11.95L33.51 11.95L33.47 13.83Q33.47 14.33 33.52 14.76Q33.58 15.18 33.71 15.62Q33.85 16.05 34.14 16.30Q34.43 16.56 34.84 16.56L34.84 16.56Q35.28 16.56 35.63 16.38Q35.98 16.20 36.20 15.92Q36.42 15.65 36.56 15.27Q36.70 14.89 36.76 14.52Q36.81 14.15 36.81 13.76L36.81 13.76Q36.81 11.22 35.14 11.22L35.14 11.22Q34.86 11.22 34.55 11.35Q34.23 11.47 34.02 11.60Q33.81 11.73 33.51 11.95ZM41.86 11.77L41.86 11.77Q41.86 15.83 41.97 16.74L41.97 16.74L40.50 17.19L40.33 17.04Q40.39 15.55 40.39 12.54L40.39 12.54Q40.39 8.91 40.33 8.63L40.33 8.63Q40.24 8.33 40.02 8.24Q39.80 8.16 39.06 8.11L39.06 8.11L39.06 7.74L39.23 7.63L41.84 7.35L41.86 7.49L41.86 11.03L41.99 11.13Q42.77 10.68 43.44 10.40Q44.11 10.13 44.72 10.13L44.72 10.13Q45.11 10.13 45.39 10.26Q45.68 10.40 45.83 10.60Q45.99 10.79 46.08 11.09Q46.17 11.39 46.19 11.65Q46.22 11.90 46.22 12.22L46.22 12.22Q46.22 12.39 46.16 13.17Q46.10 13.95 46.10 14.46L46.10 14.46Q46.10 15.16 46.25 15.51Q46.39 15.86 46.75 15.86L46.75 15.86Q46.94 15.86 47.12 15.78Q47.30 15.70 47.42 15.61Q47.53 15.52 47.70 15.37L47.70 15.37L47.91 15.52L47.94 15.69Q47.69 15.98 47.59 16.10Q47.48 16.21 47.22 16.47Q46.96 16.73 46.78 16.86Q46.61 16.98 46.36 17.09Q46.12 17.20 45.90 17.20L45.90 17.20Q45.17 17.20 44.90 16.67Q44.62 16.15 44.62 14.92L44.62 14.92Q44.62 14.48 44.66 13.76Q44.69 13.04 44.69 12.75L44.69 12.75Q44.69 11.83 44.41 11.46Q44.13 11.09 43.50 11.09L43.50 11.09Q43.15 11.09 42.69 11.29Q42.24 11.49 41.86 11.77ZM48.44 16.95L48.44 16.95L46.68 17.10L46.65 16.97Q49.65 12.49 51.83 8.30L51.83 8.30Q51.84 8.29 51.84 8.23L51.84 8.23Q51.84 8.17 51.80 8.17L51.80 8.17L50.48 8.00L50.48 7.47L53.62 7.47L55.17 12.69Q55.30 13.13 55.40 13.42Q55.49 13.72 55.65 14.18Q55.82 14.65 55.97 14.96Q56.13 15.28 56.32 15.59Q56.52 15.90 56.74 16.06Q56.96 16.22 57.19 16.22L57.19 16.22Q57.47 16.22 58.00 16.11L58.00 16.11L58.11 16.50Q57.50 16.78 57.23 16.89Q56.96 17.00 56.45 17.14Q55.95 17.29 55.57 17.29L55.57 17.29Q55.27 17.29 55.03 17.17Q54.80 17.04 54.64 16.82Q54.48 16.60 54.39 16.38Q54.29 16.17 54.21 15.89L54.21 15.89L53.50 13.34L49.98 13.34Q49.52 14.21 48.44 16.95ZM50.67 12.61L53.06 12.61Q53.09 12.61 53.14 12.59Q53.19 12.56 53.19 12.54L53.19 12.54Q53.19 12.39 53.18 12.36L53.18 12.36L52.27 9.49Q52.23 9.38 52.14 9.38L52.14 9.38Q52.08 9.38 52.01 9.49L52.01 9.49L50.54 12.40Q50.52 12.44 50.52 12.52L50.52 12.52Q50.52 12.55 50.57 12.58Q50.63 12.61 50.67 12.61L50.67 12.61ZM60.09 11.74L60.09 11.74L60.58 15.10L60.72 15.14Q62.47 12.50 63.42 10.61L63.42 10.61L64.18 10.19L64.36 10.21Q64.95 13.17 65.88 15.39L65.88 15.39Q65.95 15.57 66.01 15.57L66.01 15.57Q66.18 15.57 66.29 15.48L66.29 15.48Q66.97 14.94 67.43 14.26Q67.89 13.58 67.89 12.87L67.89 12.87Q67.89 12.17 67.23 11.17L67.23 11.17L67.23 10.99L68.38 10.14L68.60 10.17Q69.32 10.96 69.32 11.67L69.32 11.67Q69.32 12.01 69.20 12.39Q69.08 12.78 68.84 13.18Q68.61 13.59 68.36 13.94Q68.12 14.29 67.75 14.73Q67.38 15.17 67.12 15.45Q66.86 15.72 66.47 16.14L66.47 16.14Q66.45 16.17 66.29 16.33Q66.13 16.50 66.06 16.57Q65.99 16.65 65.83 16.79Q65.68 16.93 65.57 17.00Q65.47 17.07 65.33 17.13Q65.19 17.19 65.08 17.19L65.08 17.19Q64.76 17.19 64.55 16.49L64.55 16.49L63.24 12.39L63.10 12.39Q62.73 13.01 61.75 14.59Q60.77 16.18 60.29 17.06L60.29 17.06L59.42 17.27L59.26 17.19Q59.21 16.27 58.95 14.11L58.95 14.11Q58.78 12.74 58.67 12.30L58.67 12.30Q58.41 11.38 57.95 11.38L57.95 11.38Q57.39 11.38 56.94 11.66L56.94 11.66L56.75 11.39Q57.06 11.14 57.27 10.98Q57.49 10.83 57.81 10.63Q58.14 10.42 58.44 10.33Q58.75 10.23 59.03 10.23L59.03 10.23Q59.39 10.23 59.79 10.58L59.79 10.58Q59.83 10.62 59.86 10.66Q59.88 10.70 59.91 10.76Q59.93 10.83 59.95 10.88Q59.96 10.94 59.98 11.05Q60.00 11.16 60.01 11.23Q60.03 11.31 60.05 11.47Q60.07 11.63 60.09 11.74ZM75.56 10.72L76.41 10.19L76.60 10.32Q76.38 12.65 76.38 14.14L76.38 14.14Q76.38 14.72 76.38 14.98Q76.39 15.24 76.43 15.55Q76.47 15.85 76.57 15.96Q76.67 16.06 76.84 16.06L76.84 16.06Q77.17 16.06 77.82 15.48L77.82 15.48L78.09 15.77Q77.84 16.06 77.62 16.29Q77.39 16.52 77.09 16.76Q76.79 17.00 76.45 17.13Q76.11 17.26 75.78 17.26L75.78 17.26Q75.03 17.26 74.91 16.33L74.91 16.33L74.73 16.26Q73.36 17.30 72.13 17.30L72.13 17.30Q71.59 17.30 71.18 17.02Q70.78 16.74 70.56 16.29Q70.34 15.84 70.24 15.36Q70.14 14.89 70.14 14.42L70.14 14.42Q70.14 12.29 70.99 11.20Q71.85 10.12 73.52 10.12L73.52 10.12Q74.58 10.12 75.56 10.72L75.56 10.72ZM74.94 12.46L74.94 12.46Q74.94 10.65 73.65 10.65L73.65 10.65Q73.26 10.65 72.95 10.80Q72.63 10.94 72.43 11.20Q72.23 11.46 72.08 11.78Q71.93 12.09 71.86 12.47Q71.78 12.85 71.75 13.19Q71.72 13.52 71.72 13.87L71.72 13.87Q71.72 14.27 71.78 14.65Q71.85 15.03 72.01 15.39Q72.16 15.76 72.46 15.99Q72.77 16.21 73.19 16.21L73.19 16.21Q74.01 16.21 74.83 15.45L74.83 15.45Q74.94 14.63 74.94 12.46ZM80.61 16.63L80.61 16.63L79.13 17.17L78.85 17.08Q78.94 13.81 78.94 12.97L78.94 12.97Q78.94 12.92 78.94 12.81L78.94 12.81Q78.94 12.61 78.94 12.51Q78.94 12.41 78.93 12.24Q78.93 12.07 78.92 11.98Q78.91 11.89 78.88 11.75Q78.86 11.62 78.82 11.55Q78.78 11.48 78.73 11.41Q78.68 11.34 78.61 11.31Q78.53 11.28 78.44 11.28L78.44 11.28Q78.24 11.28 77.97 11.41Q77.70 11.53 77.49 11.70L77.49 11.70L77.26 11.38Q77.59 11.12 77.78 10.98Q77.98 10.83 78.30 10.64Q78.61 10.44 78.91 10.34Q79.20 10.25 79.47 10.25L79.47 10.25Q80.01 10.25 80.20 10.56Q80.40 10.88 80.40 11.46L80.40 11.46L80.55 11.53Q81.09 10.98 81.60 10.63Q82.12 10.29 82.67 10.29L82.67 10.29Q83.23 10.29 83.50 10.65Q83.77 11.02 83.77 11.55L83.77 11.55L82.72 12.36L82.54 12.24Q82.47 11.92 82.27 11.70Q82.07 11.48 81.74 11.48L81.74 11.48Q81.35 11.48 81.07 11.68Q80.79 11.87 80.66 12.20Q80.53 12.52 80.47 12.84Q80.41 13.16 80.41 13.49L80.41 13.49Q80.41 14.42 80.61 16.63ZM86.02 13.48L86.02 13.48Q86.71 13.26 87.66 12.98L87.66 12.98Q88.57 12.70 88.80 12.59Q89.03 12.48 89.03 12.27L89.03 12.27Q89.03 11.66 88.71 11.19Q88.39 10.72 87.76 10.72L87.76 10.72Q87.33 10.72 86.98 10.90Q86.64 11.09 86.43 11.37Q86.22 11.66 86.08 12.03Q85.94 12.40 85.89 12.74Q85.84 13.08 85.84 13.42L85.84 13.42Q85.84 13.49 85.94 13.49L85.94 13.49Q85.96 13.49 85.98 13.49Q86.01 13.48 86.02 13.48ZM90.04 15.62L90.25 15.67L90.41 15.94Q89.52 16.56 88.75 16.94Q87.97 17.32 87.20 17.32L87.20 17.32Q85.79 17.32 85.02 16.60L85.02 16.60Q84.16 15.81 84.16 14.23L84.16 14.23Q84.16 13.45 84.41 12.73Q84.66 12.00 85.12 11.43Q85.59 10.85 86.36 10.50Q87.12 10.16 88.08 10.16L88.08 10.16Q88.61 10.16 89.06 10.26Q89.52 10.37 89.91 10.60Q90.30 10.83 90.52 11.24Q90.75 11.65 90.75 12.20L90.75 12.20Q90.75 12.60 90.35 12.72L90.35 12.72Q90.31 12.72 85.84 14.11L85.84 14.11Q85.84 14.69 86.07 15.19Q86.30 15.70 86.78 16.03Q87.27 16.37 87.92 16.37L87.92 16.37Q88.81 16.37 90.04 15.62L90.04 15.62Z"></path></g><!----><g data-v-423bf9ae="" id="69a920dc-efb2-4f83-898d-86d1fe42c38b" transform="matrix(1.5002501904964238,0,0,1.5002501904964238,-2.003002525330899,-1.99549788385864)" stroke="none" fill="white"><path d="M42.23 42.57h-.12v1.04l-.1.95C53.82 45.92 60 49.34 60 52.01c0 3.72-10.83 7.81-26.99 7.99-.33 0-.68.01-1.01 0h-1.04C14.83 59.82 4 55.73 4 52.01c0-2.67 6.18-6.08 17.99-7.45l-.11-.95v-1.05h-.12c-9.56 1.1-19.77 4.16-19.77 9.43 0 6.28 14.91 9.84 28.93 9.99h2.13c14.03-.15 28.94-3.71 28.94-9.99 0-5.28-10.21-8.33-19.77-9.43zM26.59 23.01c.55 1.21 1.72 1.99 2.99 1.99 1.79 0 3.31-1.6 3.31-3.5 0-.17-.02-.34-.05-.5h.05c0-1.1.79-2 1.77-2s1.77.9 1.77 2-.79 2-1.77 2v2c2.08 0 3.77-1.79 3.77-4s-1.69-4-3.77-4c-.67 0-1.28.2-1.82.52.01-.08.04-.16.04-.24.08-.88-.21-1.74-.78-2.37-.54-.59-1.27-.92-2.05-.92-1.57 0-2.85 1.35-2.85 3h2c0-.55.38-1 .85-1 .29 0 .48.17.57.27.2.22.3.52.27.84-.04.5-.45.89-.92.89h-.38c-.55 0-1 .45-1 1s.45 1 1 1c.72 0 1.31.67 1.31 1.5s-.61 1.5-1.31 1.5c-.49 0-.94-.31-1.16-.82-.47-1.04-1.4-1.68-2.44-1.68h-.56v2h.56c.28 0 .5.26.61.51zM35.93 16c.74 0 1.48-.25 2.06-.74l.59-.5-1.3-1.52-.59.5c-.41.35-1.12.35-1.53 0l-.59-.5-1.3 1.52.59.5c.58.49 1.32.74 2.06.74z"></path><circle cx="35.93" cy="12" r="1"></circle><path d="M31.1 55.44c.17.34.52.56.9.56s.73-.22.9-.56l14.3-28.89c3.13-6.53 2.13-13.95-2.53-18.9C41.23 4 36.74 1.99 32 1.99S22.77 4 19.33 7.65c-4.66 4.95-5.65 12.37-2.53 18.9s14.29 28.89 14.29 28.89zM32 8c6.08 0 11 4.92 11 11s-4.92 11-11 11-11-4.92-11-11S25.92 8 32 8z"></path></g><!----></svg>