<svg data-v-423bf9ae="" xmlns="http://www.w3.org/2000/svg" viewBox="0 0 572 90" class="iconLeft"><!----><!----><!----><g data-v-423bf9ae="" id="831cf9ee-3c7f-463a-b626-d97909ce405d" fill="white" transform="matrix(6.066733864221661,0,0,6.066733864221661,106.98164989316842,-11.14762356132838)"><path d="M0.71 14.01Q0.62 14.01 0.56 13.96Q0.50 13.90 0.50 13.82L0.50 13.82Q0.50 13.73 0.56 13.68Q0.62 13.62 0.71 13.62L0.71 13.62L1.32 13.62Q1.47 13.62 1.57 13.51Q1.68 13.40 1.68 13.24L1.68 13.24L1.68 5.19Q1.68 5.04 1.57 4.93Q1.47 4.82 1.32 4.82L1.32 4.82L0.71 4.82Q0.63 4.82 0.57 4.75Q0.50 4.69 0.50 4.61L0.50 4.61Q0.50 4.52 0.56 4.47Q0.62 4.41 0.71 4.41L0.71 4.41L4.07 4.41Q4.16 4.41 4.22 4.47Q4.28 4.52 4.28 4.61L4.28 4.61Q4.28 4.68 4.22 4.75Q4.16 4.82 4.07 4.82L4.07 4.82L3.44 4.82Q3.29 4.82 3.19 4.93Q3.08 5.04 3.08 5.19L3.08 5.19L3.08 9.39L6.73 5.61Q6.87 5.47 6.87 5.29L6.87 5.29Q6.87 5.10 6.74 4.96Q6.61 4.82 6.40 4.82L6.40 4.82L6.09 4.82Q6.02 4.82 5.95 4.75Q5.88 4.68 5.88 4.61L5.88 4.61Q5.88 4.52 5.94 4.47Q6.01 4.41 6.09 4.41L6.09 4.41L9.07 4.41Q9.16 4.41 9.23 4.47Q9.30 4.52 9.30 4.61L9.30 4.61Q9.30 4.68 9.22 4.75Q9.14 4.82 9.07 4.82L9.07 4.82Q8.61 4.82 8.15 5.04Q7.70 5.26 6.96 6.01L6.96 6.01L5.00 7.91L8.76 13.12Q8.92 13.36 9.18 13.49Q9.44 13.62 9.70 13.62L9.70 13.62Q9.77 13.62 9.83 13.68Q9.88 13.73 9.88 13.82L9.88 13.82Q9.88 13.90 9.83 13.96Q9.77 14.01 9.70 14.01L9.70 14.01L6.31 14.01Q6.23 14.01 6.18 13.96Q6.13 13.90 6.13 13.82L6.13 13.82Q6.13 13.73 6.18 13.68Q6.23 13.62 6.31 13.62L6.31 13.62L6.83 13.62Q6.97 13.62 7.06 13.55Q7.14 13.47 7.14 13.34L7.14 13.34Q7.14 13.22 7.06 13.12L7.06 13.12L4.00 8.86L3.16 9.65Q3.08 9.74 3.08 9.86L3.08 9.86L3.08 13.24Q3.08 13.40 3.19 13.51Q3.30 13.62 3.44 13.62L3.44 13.62L4.07 13.62Q4.16 13.62 4.22 13.68Q4.28 13.73 4.28 13.82L4.28 13.82Q4.28 13.90 4.22 13.96Q4.16 14.01 4.07 14.01L4.07 14.01L0.71 14.01ZM12.80 14.14Q12.01 14.14 11.66 13.62Q11.30 13.10 11.30 12.52L11.30 12.52L11.30 8.88Q11.30 8.65 11.10 8.65L11.10 8.65L10.63 8.65Q10.49 8.65 10.49 8.51L10.49 8.51Q10.49 8.37 10.65 8.37L10.65 8.37L12.15 8.37Q12.25 8.37 12.29 8.41Q12.32 8.44 12.32 8.54L12.32 8.54L12.32 12.49Q12.32 12.95 12.59 13.24Q12.85 13.52 13.24 13.52L13.24 13.52Q13.80 13.52 14.22 13.08Q14.64 12.64 14.64 11.52L14.64 11.52L14.64 8.86Q14.64 8.74 14.60 8.69Q14.56 8.65 14.46 8.65L14.46 8.65L14 8.65Q13.86 8.65 13.86 8.51L13.86 8.51Q13.86 8.36 14 8.36L14 8.36L15.46 8.36Q15.58 8.36 15.63 8.40Q15.68 8.44 15.68 8.54L15.68 8.54L15.68 13.37Q15.68 13.54 15.74 13.62Q15.81 13.71 15.90 13.71L15.90 13.71L16.44 13.71Q16.62 13.71 16.62 13.83L16.62 13.83Q16.62 13.90 16.55 13.96Q16.49 14.01 16.41 14.01L16.41 14.01L14.85 14.01Q14.74 14.01 14.69 13.97Q14.64 13.92 14.64 13.79L14.64 13.79L14.64 13.01Q14.64 12.95 14.61 12.95Q14.57 12.95 14.55 13.01L14.55 13.01Q14.31 13.41 13.92 13.78Q13.52 14.14 12.80 14.14L12.80 14.14ZM17.85 14.01Q17.79 14.01 17.77 13.97Q17.75 13.93 17.75 13.85L17.75 13.85Q17.75 13.78 17.78 13.76Q17.81 13.73 17.89 13.73L17.89 13.73L18.17 13.73Q18.30 13.73 18.36 13.64Q18.42 13.54 18.42 13.41L18.42 13.41L18.42 9.00Q18.42 8.85 18.35 8.77Q18.28 8.69 18.17 8.69L18.17 8.69L17.75 8.69Q17.58 8.69 17.58 8.54L17.58 8.54Q17.58 8.36 17.77 8.36L17.77 8.36L19.24 8.36Q19.35 8.36 19.40 8.41Q19.46 8.46 19.46 8.58L19.46 8.58L19.46 9.32Q19.46 9.42 19.50 9.46Q19.53 9.49 19.60 9.39L19.60 9.39Q19.63 9.37 19.81 9.06Q19.99 8.75 20.41 8.50Q20.83 8.25 21.34 8.25L21.34 8.25Q21.95 8.25 22.30 8.56Q22.64 8.88 22.78 9.35L22.78 9.35Q22.82 9.42 22.86 9.44Q22.90 9.46 22.96 9.39L22.96 9.39Q22.97 9.37 23.16 9.07Q23.34 8.76 23.77 8.51Q24.19 8.25 24.71 8.25L24.71 8.25Q25.49 8.25 25.84 8.76Q26.19 9.28 26.19 9.87L26.19 9.87L26.19 13.51Q26.19 13.64 26.25 13.67Q26.31 13.71 26.42 13.71L26.42 13.71L26.78 13.71Q26.92 13.71 26.92 13.85L26.92 13.85Q26.92 14.01 26.78 14.01L26.78 14.01L24.63 14.01Q24.50 14.01 24.50 13.85L24.50 13.85Q24.50 13.78 24.54 13.76Q24.57 13.73 24.65 13.73L24.65 13.73L24.93 13.73Q25.20 13.73 25.20 13.51L25.20 13.51L25.20 9.91Q25.20 9.44 24.93 9.14Q24.65 8.83 24.26 8.83L24.26 8.83Q23.95 8.83 23.64 9.02Q23.32 9.21 23.09 9.67Q22.86 10.14 22.86 10.91L22.86 10.91L22.86 13.51Q22.86 13.64 22.90 13.67Q22.93 13.71 23.03 13.71L23.03 13.71L23.48 13.71Q23.53 13.71 23.58 13.74Q23.62 13.78 23.62 13.85L23.62 13.85Q23.62 14.01 23.48 14.01L23.48 14.01L21.24 14.01Q21.18 14.01 21.17 13.97Q21.15 13.92 21.15 13.85L21.15 13.85Q21.15 13.76 21.17 13.75Q21.18 13.73 21.27 13.73L21.27 13.73L21.59 13.73Q21.73 13.73 21.78 13.68Q21.83 13.62 21.83 13.51L21.83 13.51L21.83 9.91Q21.83 9.44 21.56 9.14Q21.29 8.83 20.89 8.83L20.89 8.83Q20.58 8.83 20.26 9.02Q19.94 9.21 19.70 9.67Q19.46 10.14 19.46 10.91L19.46 10.91L19.46 13.51Q19.46 13.64 19.50 13.67Q19.54 13.71 19.64 13.71L19.64 13.71L20.08 13.71Q20.20 13.71 20.20 13.85L20.20 13.85Q20.20 14.01 20.06 14.01L20.06 14.01L17.85 14.01ZM31.30 14.20Q30.70 14.20 30.28 13.90Q29.86 13.59 29.64 13.33L29.64 13.33Q29.57 13.26 29.55 13.26L29.55 13.26Q29.53 13.26 29.44 13.41L29.44 13.41Q29.43 13.44 29.30 13.70Q29.18 13.96 29.04 14.07L29.04 14.07Q28.98 14.13 28.92 14.13L28.92 14.13Q28.81 14.13 28.81 13.96L28.81 13.96L28.81 5.38Q28.81 5.25 28.79 5.18Q28.77 5.11 28.69 5.01L28.69 5.01Q28.55 4.86 28.24 4.86L28.24 4.86Q27.92 4.86 27.92 4.72L27.92 4.72Q27.92 4.58 28.10 4.58L28.10 4.58L29.53 4.58Q29.71 4.58 29.78 4.63Q29.85 4.68 29.85 4.80L29.85 4.80L29.85 9.18Q29.85 9.25 29.89 9.27Q29.93 9.28 29.99 9.21L29.99 9.21Q30.17 8.93 30.55 8.65Q30.93 8.36 31.56 8.36L31.56 8.36Q32.16 8.36 32.72 8.69Q33.28 9.03 33.62 9.67Q33.96 10.32 33.96 11.20L33.96 11.20Q33.96 12.17 33.54 12.85Q33.11 13.52 32.49 13.86Q31.88 14.20 31.30 14.20L31.30 14.20ZM31.29 13.93Q32.10 13.93 32.46 13.31Q32.82 12.70 32.82 11.26L32.82 11.26Q32.82 9.94 32.49 9.29Q32.17 8.64 31.39 8.64L31.39 8.64Q30.62 8.64 30.24 9.17Q29.86 9.70 29.86 10.53L29.86 10.53L29.86 11.41Q29.86 12.77 30.20 13.35Q30.53 13.93 31.29 13.93L31.29 13.93ZM35.22 14.01Q35.17 14.01 35.15 13.97Q35.13 13.93 35.13 13.85L35.13 13.85Q35.13 13.78 35.15 13.76Q35.18 13.73 35.27 13.73L35.27 13.73L35.66 13.73Q35.78 13.73 35.85 13.64Q35.91 13.54 35.91 13.41L35.91 13.41L35.91 5.07Q35.91 4.90 35.84 4.81Q35.77 4.72 35.66 4.72L35.66 4.72L35.13 4.72Q34.96 4.72 34.96 4.58L34.96 4.58Q34.96 4.51 35.01 4.46Q35.06 4.41 35.14 4.41L35.14 4.41L36.72 4.41Q36.93 4.41 36.93 4.62L36.93 4.62L36.93 9.37Q36.93 9.46 36.99 9.49Q37.04 9.52 37.09 9.45L37.09 9.45Q37.10 9.42 37.43 8.88Q37.76 8.33 38.92 8.33L38.92 8.33Q39.79 8.33 40.19 8.86Q40.59 9.38 40.59 10.01L40.59 10.01L40.59 13.48Q40.59 13.61 40.61 13.66Q40.63 13.71 40.70 13.71L40.70 13.71L41.19 13.71Q41.29 13.71 41.32 13.73Q41.36 13.76 41.36 13.85L41.36 13.85Q41.36 14.00 41.22 14.00L41.22 14.00L38.92 14.00Q38.85 14.00 38.82 13.97Q38.79 13.93 38.79 13.85L38.79 13.85Q38.79 13.71 38.92 13.71L38.92 13.71L39.37 13.71Q39.51 13.71 39.56 13.66Q39.61 13.62 39.61 13.52L39.61 13.52L39.61 10.77Q39.61 10.21 39.54 9.82Q39.48 9.44 39.22 9.16Q38.96 8.88 38.42 8.88L38.42 8.88Q36.93 8.88 36.93 11.13L36.93 11.13L36.93 13.51Q36.93 13.64 36.97 13.67Q37.02 13.71 37.11 13.71L37.11 13.71L37.58 13.71Q37.72 13.71 37.72 13.85L37.72 13.85Q37.72 14.01 37.58 14.01L37.58 14.01L35.22 14.01ZM45.79 14.20Q45.29 14.20 44.92 14.08Q44.55 13.96 44.07 13.73L44.07 13.73Q43.89 13.64 43.73 13.57Q43.57 13.51 43.44 13.51L43.44 13.51Q43.29 13.51 43.14 13.60Q42.99 13.69 42.88 13.79Q42.76 13.89 42.71 13.92L42.71 13.92Q42.67 13.94 42.59 13.94L42.59 13.94Q42.49 13.94 42.42 13.87Q42.35 13.80 42.35 13.71L42.35 13.71L42.35 11.35Q42.35 11.20 42.49 11.20L42.49 11.20Q42.62 11.20 42.69 11.35L42.69 11.35Q43.22 12.53 43.95 13.19Q44.69 13.85 45.79 13.85L45.79 13.85Q46.87 13.85 47.34 13.29Q47.81 12.74 47.92 12.15L47.92 12.15Q47.95 12.04 47.95 11.86L47.95 11.86Q47.95 10.99 47.17 10.52Q46.40 10.05 45.16 9.72L45.16 9.72Q44.51 9.52 43.94 9.25Q43.37 8.99 42.86 8.41Q42.35 7.83 42.35 6.93L42.35 6.93Q42.35 6.10 42.71 5.51Q43.08 4.91 43.69 4.61Q44.31 4.31 45.07 4.31L45.07 4.31Q45.86 4.31 46.77 4.80L46.77 4.80Q46.89 4.84 47.07 4.84L47.07 4.84Q47.38 4.84 47.56 4.66L47.56 4.66Q47.64 4.59 47.70 4.56Q47.77 4.52 47.84 4.52L47.84 4.52Q48.02 4.52 48.02 4.72L48.02 4.72L48.06 6.78Q48.06 7.00 47.92 7.00L47.92 7.00Q47.87 7.00 47.82 6.94Q47.77 6.87 47.70 6.75L47.70 6.75Q47.03 5.54 46.48 5.11L46.48 5.11Q45.88 4.62 45.12 4.62L45.12 4.62Q44.27 4.62 43.74 5.09Q43.20 5.56 43.20 6.29L43.20 6.29Q43.20 6.85 43.51 7.20Q43.82 7.55 44.32 7.75Q44.81 7.95 45.60 8.15L45.60 8.15Q46.41 8.37 47.03 8.65Q47.66 8.92 48.15 9.53Q48.65 10.15 48.65 11.17L48.65 11.17Q48.65 11.98 48.30 12.68Q47.95 13.37 47.30 13.78Q46.65 14.20 45.79 14.20L45.79 14.20ZM49.90 14.01Q49.84 14.01 49.82 13.97Q49.80 13.93 49.80 13.85L49.80 13.85Q49.80 13.78 49.83 13.76Q49.85 13.73 49.94 13.73L49.94 13.73L50.33 13.73Q50.46 13.73 50.52 13.64Q50.58 13.54 50.58 13.41L50.58 13.41L50.58 5.07Q50.58 4.90 50.51 4.81Q50.44 4.72 50.33 4.72L50.33 4.72L49.80 4.72Q49.63 4.72 49.63 4.58L49.63 4.58Q49.63 4.51 49.68 4.46Q49.73 4.41 49.81 4.41L49.81 4.41L51.39 4.41Q51.60 4.41 51.60 4.62L51.60 4.62L51.60 9.37Q51.60 9.46 51.66 9.49Q51.72 9.52 51.76 9.45L51.76 9.45Q51.77 9.42 52.10 8.88Q52.43 8.33 53.59 8.33L53.59 8.33Q54.46 8.33 54.86 8.86Q55.26 9.38 55.26 10.01L55.26 10.01L55.26 13.48Q55.26 13.61 55.28 13.66Q55.30 13.71 55.37 13.71L55.37 13.71L55.86 13.71Q55.96 13.71 55.99 13.73Q56.03 13.76 56.03 13.85L56.03 13.85Q56.03 14.00 55.89 14.00L55.89 14.00L53.59 14.00Q53.52 14.00 53.49 13.97Q53.47 13.93 53.47 13.85L53.47 13.85Q53.47 13.71 53.59 13.71L53.59 13.71L54.04 13.71Q54.18 13.71 54.23 13.66Q54.28 13.62 54.28 13.52L54.28 13.52L54.28 10.77Q54.28 10.21 54.21 9.82Q54.15 9.44 53.89 9.16Q53.63 8.88 53.09 8.88L53.09 8.88Q51.60 8.88 51.60 11.13L51.60 11.13L51.60 13.51Q51.60 13.64 51.65 13.67Q51.69 13.71 51.79 13.71L51.79 13.71L52.25 13.71Q52.39 13.71 52.39 13.85L52.39 13.85Q52.39 14.01 52.25 14.01L52.25 14.01L49.90 14.01ZM58.44 6.41Q58.17 6.41 57.98 6.22Q57.79 6.02 57.79 5.75L57.79 5.75Q57.79 5.49 57.98 5.29Q58.17 5.08 58.44 5.08L58.44 5.08Q58.70 5.08 58.91 5.29Q59.12 5.50 59.12 5.75L59.12 5.75Q59.12 6.02 58.92 6.22Q58.72 6.41 58.44 6.41L58.44 6.41ZM57.26 14.01Q57.20 14.01 57.18 13.97Q57.16 13.93 57.16 13.85L57.16 13.85Q57.16 13.78 57.19 13.76Q57.22 13.73 57.30 13.73L57.30 13.73L57.69 13.73Q57.82 13.73 57.88 13.64Q57.95 13.54 57.95 13.41L57.95 13.41L57.95 9.00Q57.95 8.69 57.69 8.69L57.69 8.69L57.16 8.69Q56.99 8.69 56.99 8.54L56.99 8.54Q56.99 8.36 57.18 8.36L57.18 8.36L58.76 8.36Q58.97 8.36 58.97 8.58L58.97 8.58L58.97 13.51Q58.97 13.64 59.01 13.67Q59.05 13.71 59.15 13.71L59.15 13.71L59.61 13.71Q59.75 13.71 59.75 13.85L59.75 13.85Q59.75 14.01 59.61 14.01L59.61 14.01L57.26 14.01ZM63.57 14.14Q62.87 14.14 62.22 13.82Q61.57 13.50 61.15 12.85Q60.73 12.19 60.73 11.27L60.73 11.27Q60.73 10.36 61.14 9.67Q61.54 8.99 62.17 8.62Q62.79 8.25 63.43 8.25L63.43 8.25Q64.25 8.25 64.78 8.65Q65.31 9.04 65.56 9.62Q65.81 10.19 65.81 10.68L65.81 10.68Q65.81 11.02 65.55 11.02L65.55 11.02L62.62 11.02Q62.23 11.02 62.06 11.07Q61.89 11.12 61.89 11.31L61.89 11.31Q61.89 12.42 62.30 13.13Q62.71 13.83 63.80 13.83L63.80 13.83L63.84 13.83Q64.30 13.82 64.73 13.57Q65.16 13.33 65.60 12.67L65.60 12.67Q65.65 12.61 65.73 12.61L65.73 12.61Q65.80 12.61 65.84 12.66Q65.88 12.70 65.84 12.78L65.84 12.78Q65.79 12.94 65.52 13.26Q65.25 13.58 64.76 13.86Q64.26 14.14 63.57 14.14L63.57 14.14ZM61.91 10.67L64.41 10.67Q64.62 10.67 64.66 10.63Q64.69 10.60 64.69 10.42L64.69 10.42Q64.69 9.81 64.48 9.16Q64.26 8.50 63.52 8.50L63.52 8.50Q62.93 8.50 62.47 9.04Q62.01 9.59 61.91 10.67L61.91 10.67ZM67.13 14.01Q67.03 14.01 67.03 13.85L67.03 13.85Q67.03 13.78 67.06 13.76Q67.09 13.73 67.17 13.73L67.17 13.73L67.58 13.73Q67.70 13.73 67.76 13.64Q67.82 13.55 67.82 13.41L67.82 13.41L67.82 5.07Q67.82 4.90 67.75 4.81Q67.68 4.72 67.58 4.72L67.58 4.72L67.03 4.72Q66.86 4.72 66.86 4.56L66.86 4.56Q66.86 4.48 66.91 4.45Q66.95 4.41 67.05 4.41L67.05 4.41L68.63 4.41Q68.84 4.41 68.84 4.62L68.84 4.62L68.84 13.51Q68.84 13.64 68.88 13.67Q68.92 13.71 69.02 13.71L69.02 13.71L69.48 13.71Q69.62 13.71 69.62 13.85L69.62 13.85Q69.62 14.01 69.48 14.01L69.48 14.01L67.13 14.01ZM73.07 14.20Q72.56 14.20 72.00 13.92Q71.43 13.65 71.02 13.01Q70.60 12.38 70.60 11.35L70.60 11.35Q70.60 10.40 70.97 9.69Q71.34 8.97 71.90 8.60Q72.45 8.22 72.95 8.22L72.95 8.22Q73.47 8.22 73.89 8.40Q74.30 8.58 74.56 8.85L74.56 8.85Q74.61 8.89 74.65 8.89L74.65 8.89Q74.76 8.89 74.76 8.76L74.76 8.76L74.76 5.21Q74.76 5.07 74.75 5.02Q74.73 4.97 74.65 4.84L74.65 4.84Q74.55 4.70 74.06 4.70L74.06 4.70L73.85 4.70Q73.77 4.70 73.72 4.66Q73.67 4.62 73.67 4.56L73.67 4.56Q73.67 4.41 73.84 4.41L73.84 4.41L75.47 4.41Q75.64 4.41 75.71 4.46Q75.78 4.51 75.78 4.63L75.78 4.63L75.78 13.24Q75.78 13.61 75.91 13.72Q76.03 13.83 76.34 13.83L76.34 13.83Q76.47 13.83 76.50 13.85Q76.52 13.86 76.52 13.93L76.52 13.93Q76.52 14.00 76.50 14.04Q76.47 14.07 76.37 14.07L76.37 14.07L74.97 14.11Q74.87 14.11 74.82 14.08Q74.76 14.06 74.76 13.96L74.76 13.96L74.76 13.37Q74.76 13.31 74.70 13.29Q74.65 13.27 74.62 13.33L74.62 13.33Q74.38 13.69 73.95 13.94Q73.53 14.20 73.07 14.20L73.07 14.20ZM73.09 13.83Q74.07 13.83 74.40 13.20Q74.73 12.56 74.76 11.97L74.76 11.97L74.76 9.76L74.75 9.73Q74.62 9.25 74.27 8.88Q73.92 8.51 73.29 8.51L73.29 8.51Q72.41 8.51 72.09 9.36Q71.76 10.21 71.76 11.30L71.76 11.30Q71.76 12.45 72.02 13.14Q72.27 13.83 73.09 13.83L73.09 13.83Z"></path></g><!----><g data-v-423bf9ae="" id="5a91d6f0-a6d7-42e4-b230-f89825d529e7" transform="matrix(1.5002501904964238,0,0,1.5002501904964238,-2.003002525330899,-1.99549788385864)" stroke="none" fill="white"><path d="M42.23 42.57h-.12v1.04l-.1.95C53.82 45.92 60 49.34 60 52.01c0 3.72-10.83 7.81-26.99 7.99-.33 0-.68.01-1.01 0h-1.04C14.83 59.82 4 55.73 4 52.01c0-2.67 6.18-6.08 17.99-7.45l-.11-.95v-1.05h-.12c-9.56 1.1-19.77 4.16-19.77 9.43 0 6.28 14.91 9.84 28.93 9.99h2.13c14.03-.15 28.94-3.71 28.94-9.99 0-5.28-10.21-8.33-19.77-9.43zM26.59 23.01c.55 1.21 1.72 1.99 2.99 1.99 1.79 0 3.31-1.6 3.31-3.5 0-.17-.02-.34-.05-.5h.05c0-1.1.79-2 1.77-2s1.77.9 1.77 2-.79 2-1.77 2v2c2.08 0 3.77-1.79 3.77-4s-1.69-4-3.77-4c-.67 0-1.28.2-1.82.52.01-.08.04-.16.04-.24.08-.88-.21-1.74-.78-2.37-.54-.59-1.27-.92-2.05-.92-1.57 0-2.85 1.35-2.85 3h2c0-.55.38-1 .85-1 .29 0 .48.17.57.27.2.22.3.52.27.84-.04.5-.45.89-.92.89h-.38c-.55 0-1 .45-1 1s.45 1 1 1c.72 0 1.31.67 1.31 1.5s-.61 1.5-1.31 1.5c-.49 0-.94-.31-1.16-.82-.47-1.04-1.4-1.68-2.44-1.68h-.56v2h.56c.28 0 .5.26.61.51zM35.93 16c.74 0 1.48-.25 2.06-.74l.59-.5-1.3-1.52-.59.5c-.41.35-1.12.35-1.53 0l-.59-.5-1.3 1.52.59.5c.58.49 1.32.74 2.06.74z"></path><circle cx="35.93" cy="12" r="1"></circle><path d="M31.1 55.44c.17.34.52.56.9.56s.73-.22.9-.56l14.3-28.89c3.13-6.53 2.13-13.95-2.53-18.9C41.23 4 36.74 1.99 32 1.99S22.77 4 19.33 7.65c-4.66 4.95-5.65 12.37-2.53 18.9s14.29 28.89 14.29 28.89zM32 8c6.08 0 11 4.92 11 11s-4.92 11-11 11-11-4.92-11-11S25.92 8 32 8z"></path></g><!----></svg>